<svg xmlns="http://www.w3.org/2000/svg" width="55.006" height="34" viewBox="0 0 55.006 34">
  <g id="Group_10" data-name="Group 10" transform="translate(-1148.994 -631)">
    <path id="Triangle_1" data-name="Triangle 1" d="M1169,665a2.991,2.991,0,0,1-1.114-.214,1.978,1.978,0,0,1-1.881-.071l-16.018-14.988a2,2,0,0,1,0-3.456l16.018-14.988a1.978,1.978,0,0,1,1.881-.071A2.994,2.994,0,0,1,1169,631h32a3,3,0,0,1,3,3v28a3,3,0,0,1-3,3Z" fill="#95999f"/>
    <path id="Rectangle_4" data-name="Rectangle 4" d="M1187.91,656.515l-5.919-5.919-5.919,5.919a1.5,1.5,0,0,1-2.121,0l-.5-.5a1.5,1.5,0,0,1,0-2.121l5.919-5.919-5.919-5.919a1.5,1.5,0,0,1,0-2.121l.5-.5a1.5,1.5,0,0,1,2.121,0l5.919,5.919,5.919-5.919a1.5,1.5,0,0,1,2.121,0l.5.5a1.5,1.5,0,0,1,0,2.121l-5.919,5.919,5.919,5.919a1.5,1.5,0,0,1,0,2.121l-.5.5a1.5,1.5,0,0,1-2.121,0Z" fill="#fff"/>
  </g>
</svg>
